<?xml version="1.0" encoding="utf-8"?>
<!-- Generator: Adobe Illustrator 26.0.1, SVG Export Plug-In . SVG Version: 6.00 Build 0)  -->
<svg version="1.1" id="图层_1" xmlns="http://www.w3.org/2000/svg" xmlns:xlink="http://www.w3.org/1999/xlink" x="0px" y="0px"
	 viewBox="0 0 40 40" style="enable-background:new 0 0 40 40;" xml:space="preserve">
<style type="text/css">
	.st0{fill:#868686;}
</style>
<path class="st0" d="M20,8.9c-2.5,0-4.4-2-4.4-4.4S17.5,0,20,0s4.4,2,4.4,4.4S22.5,8.9,20,8.9L20,8.9z M20,24.5
	c-2.5,0-4.4-2-4.4-4.4s2-4.4,4.4-4.4c2.4,0,4.4,2,4.4,4.4C24.4,22.5,22.5,24.4,20,24.5C20,24.4,20,24.4,20,24.5L20,24.5z M20,40
	c-2.5,0-4.4-2-4.4-4.4c0-2.5,2-4.4,4.4-4.4c2.5,0,4.4,2,4.4,4.4l0,0C24.4,38,22.5,40,20,40"/>
</svg>
