<?xml version="1.0" encoding="utf-8"?>
<!-- Generator: Adobe Illustrator 25.0.0, SVG Export Plug-In . SVG Version: 6.00 Build 0)  -->
<svg version="1.1" id="zan-hover" xmlns="http://www.w3.org/2000/svg" xmlns:xlink="http://www.w3.org/1999/xlink" x="0px" y="0px"
	 viewBox="0 0 40 929" style="enable-background:new 0 0 40 929;" xml:space="preserve">
<style type="text/css">
	.st0{fill:#FFFFFF;}
	.st1{fill:#FFD876;}
	.st2{fill:#DB8B20;}
	.st3{fill:#DB8C20;}
	.st4{fill:#666666;}
	.st5{fill:#E5E9EF;}
	.st6{fill:#00A1D6;}
	.st7{fill:#FF94B1;}
	.st8{fill:#EA5C82;}
	.st9{fill:#23ADE5;}
	.st10{fill:#2C2C2C;fill-opacity:0.3;}
	.st11{fill:#868686;}
	.st12{fill:#FFBA51;}
	.st13{fill:#4AC7FF;}
	.st14{fill:#FFA726;}
	.st15{fill-rule:evenodd;clip-rule:evenodd;fill:#00A1D6;}
	.st16{fill:#00B5E5;}
</style>
<path class="st0" d="M20,33.8L11.2,37c-1.9,0.7-3.3-0.4-3.2-2.4l0.5-9.2l-6-7.4c-1.3-1.5-0.7-3.2,1.2-3.7l9.2-2.4L18,4
	c1.1-1.7,2.8-1.7,3.9,0l5.1,8l9.2,2.4c1.9,0.5,2.5,2.2,1.2,3.7l-6,7.4l0.5,9.2c0.1,2-1.3,3.1-3.2,2.4L20,33.8z"/>
<path class="st1" d="M23.6,33.1l-6.4,2.3C15.3,36.1,13.9,35,14,33l0.4-6.6l-4.3-5.3c-1.3-1.6-0.7-3.2,1.2-3.7l6.6-1.7l3.7-5.8
	c1.1-1.7,2.9-1.7,3.9,0l3.7,5.8l6.6,1.7c1.9,0.5,2.5,2.2,1.2,3.7l-4.3,5.3l0.4,6.6c0.1,2-1.3,3.1-3.2,2.4L23.6,33.1z"/>
<path class="st2" d="M19.4,32.1c0.4-0.1,0.8-0.1,1.2,0l8.8,3.2c0.7,0.2,0.8,0.1,0.8-0.6l-0.5-9.2c0-0.5,0.1-0.9,0.4-1.3l6-7.4
	c0.4-0.5,0.4-0.6-0.3-0.8l-9.2-2.4c-0.4-0.1-0.8-0.4-1.1-0.8l-5.1-8c-0.4-0.6-0.5-0.6-0.9,0l-5.1,8c-0.2,0.4-0.6,0.7-1.1,0.8L4.1,16
	c-0.6,0.2-0.7,0.3-0.3,0.8l6,7.4c0.3,0.4,0.4,0.8,0.4,1.3l-0.5,9.2c0,0.7,0.1,0.8,0.8,0.6L19.4,32.1z M11.8,38.8c-2,0.9-4.4,0-5.3-2
	c-0.3-0.7-0.4-1.4-0.3-2.2l0.5-8.5l-5.6-6.8c-1.5-1.6-1.5-4.1,0.1-5.6c0.6-0.6,1.3-0.9,2.1-1l8.5-2.2L16.5,3
	c1.1-1.9,3.5-2.6,5.4-1.6c0.7,0.4,1.2,0.9,1.6,1.6l4.8,7.4l8.5,2.2c2.1,0.4,3.6,2.4,3.2,4.5c-0.1,0.8-0.5,1.5-1,2.1L33.4,26l0.5,8.5
	c0.3,2.2-1.2,4.2-3.4,4.5c-0.7,0.1-1.5,0-2.2-0.3l-8.2-3L11.8,38.8z"/>
<path class="st2" d="M19.8,14c-4.2,0.6-7.1,3.4-7.5,7.5c-0.1,1,0.6,1.9,1.6,2s1.9-0.6,2-1.6c0.2-2.4,1.8-3.9,4.4-4.3
	c1-0.1,1.7-1,1.6-2l0,0C21.7,14.6,20.8,13.9,19.8,14z"/>
<path class="st3" d="M33.2,8l1.2-4.8c0.3-0.9-0.2-1.9-1.1-2.2c-0.1,0-0.1,0-0.2,0c-0.9-0.3-1.9,0.3-2.2,1.2c0,0,0,0,0,0.1l-1.2,4.8
	C29.4,8,29.9,9,30.8,9.3c0.1,0,0.1,0,0.2,0C31.9,9.6,32.9,9,33.2,8L33.2,8z"/>
<path class="st3" d="M37.8,9.9l1.8-2.4C40.2,6.7,40,5.6,39.2,5s-1.9-0.4-2.5,0.4l0,0l-1.8,2.4c-0.6,0.8-0.4,1.9,0.4,2.5
	C36.1,10.9,37.2,10.7,37.8,9.9z"/>
<path class="st4" d="M19.4,72.1c0.4-0.1,0.8-0.1,1.2,0l8.8,3.2c0.6,0.2,0.8,0.1,0.8-0.6l-0.5-9.2c0-0.5,0.1-0.9,0.4-1.3l6-7.4
	c0.4-0.5,0.4-0.7-0.3-0.8l-9.2-2.4c-0.4-0.1-0.8-0.4-1.1-0.7l-5.1-8c-0.4-0.6-0.5-0.6-0.9,0l-5.1,8c-0.2,0.4-0.6,0.7-1.1,0.8
	l-9.2,2.4c-0.7,0.2-0.7,0.3-0.3,0.8l6,7.4c0.3,0.4,0.4,0.8,0.4,1.3l-0.5,9.2c0,0.7,0.1,0.8,0.8,0.6L19.4,72.1z M20,75.8l-8.2,3
	c-2,0.9-4.4,0.1-5.3-1.9c-0.3-0.7-0.4-1.5-0.3-2.3l0.5-8.5l-5.6-6.8c-1.5-1.6-1.4-4.2,0.2-5.7c0.5-0.5,1.2-0.8,1.9-1l8.5-2.2
	l4.7-7.4c1.1-1.9,3.5-2.6,5.4-1.6c0.7,0.4,1.2,0.9,1.6,1.6l4.8,7.4l8.5,2.2c2.2,0.4,3.6,2.5,3.1,4.7c-0.1,0.7-0.5,1.4-1,1.9L33.2,66
	l0.5,8.5c0.3,2.2-1.2,4.2-3.4,4.5c-0.8,0.1-1.6,0-2.3-0.3L20,75.8z"/>
<path class="st4" d="M14.5,83.3h11.1c7.6,0,13.9,6,13.9,13.3s-6.3,13.3-13.9,13.3h-0.8l-7.3,6.7l-2-6.7h-1.1
	c-7.6,0-13.9-6-13.9-13.3C0.6,89.3,6.8,83.3,14.5,83.3z M36.7,96.7c-0.1-6-5.1-10.8-11.1-10.7H14.5c-6-0.1-11,4.7-11.1,10.7
	c0.1,6,5.1,10.8,11.1,10.7h3.2l0.6,1.9l0.7,2.4l4-3.6l0.8-0.7h1.9C31.6,107.4,36.6,102.7,36.7,96.7z"/>
<path class="st5" d="M14.5,123.3h11.1c7.6,0,13.9,6,13.9,13.3S33.2,150,25.6,150h-0.8l-7.3,6.7l-2-6.7h-1.1c-7.6,0-13.8-6-13.8-13.3
	S6.8,123.3,14.5,123.3z M36.7,136.7c-0.1-6-5.1-10.8-11.1-10.7H14.5c-6-0.1-11,4.7-11.1,10.7c0.1,6,5.1,10.8,11.1,10.7h3.2l0.6,1.9
	l0.7,2.4l4-3.6l0.8-0.7h1.9C31.6,147.4,36.6,142.7,36.7,136.7z"/>
<path class="st6" d="M14.5,163.3h11.1c7.6,0,13.9,6,13.9,13.3S33.2,190,25.6,190h-0.8l-7.3,6.7l-2-6.7h-1.1c-7.6,0-13.9-6-13.9-13.3
	S6.8,163.3,14.5,163.3z M36.7,176.7c-0.1-6-5.1-10.8-11.1-10.7H14.5c-6-0.1-11,4.7-11.1,10.7c0.1,6,5.1,10.8,11.1,10.7h3.2l0.6,1.9
	l0.7,2.4l4-3.6l0.8-0.7h1.9C31.6,187.4,36.6,182.7,36.7,176.7z"/>
<path class="st0" d="M20,237.3c9.6,0,17.3-7.8,17.3-17.3c0-9.6-7.8-17.3-17.3-17.3S2.7,210.4,2.7,220S10.4,237.3,20,237.3L20,237.3z
	"/>
<path class="st7" d="M20,240c-11,0-20-9-20-20s9-20,20-20s20,9,20,20S31,240,20,240z M20,237.3c9.6,0,17.3-7.8,17.3-17.3
	c0-9.6-7.8-17.3-17.3-17.3S2.7,210.4,2.7,220S10.4,237.3,20,237.3L20,237.3z"/>
<path class="st8" d="M17.3,210.7c-0.1-1.5,1-2.7,2.5-2.8s2.7,1,2.8,2.5c0,0.1,0,0.2,0,0.3v10.6c0.1,1.5-1,2.7-2.5,2.8
	s-2.7-1-2.8-2.5c0-0.1,0-0.2,0-0.3V210.7z M20,232c-1.5,0-2.7-1.2-2.7-2.7s1.2-2.7,2.7-2.7s2.7,1.2,2.7,2.7l0,0
	C22.7,230.8,21.5,232,20,232z"/>
<path class="st4" d="M12.7,274.4c0.8,0.2,1.9,0.5,4.2,0.9c0.2,0,0.3,0.1,0.5,0.2c1.9,0.5,3.9,0.8,5.9,0.8h6.2c1,0.1,1.9-0.3,2.5-1.1
	c0.2-0.3,0.3-0.7,0.4-1.1l0.1-0.2c0-0.2,0-0.5-0.1-0.7c-0.3-0.8,0.1-1.7,0.8-2.1c0.3-0.2,0.5-0.4,0.6-0.7c0.1-0.3,0.2-0.5,0.5-1.3
	c0.2-0.6,0.2-1.3,0-1.9c-0.3-0.8,0-1.7,0.7-2.1c0.3-0.2,0.6-0.8,0.8-2c0.1-0.4,0-0.8-0.3-1.1c-0.4-0.6-0.4-1.4,0-2
	c0.6-0.9,0.7-1.2,0.7-1.6v-0.8c-0.1-1-0.7-1.8-1.7-2.1c-0.5-0.1-1.4-0.1-3.1-0.2c-0.4,0-2.3-0.1-2.8-0.1c-1.2,0-2.3-0.1-3.4-0.2
	c-1,0-1.7-0.8-1.7-1.8c0-0.6,0-1.2,0.1-1.8s0.1-1.2,0.1-1.8c0-3-2.3-6-3.9-6c-0.9,0-1.6,0.7-1.6,1.6c0.2,4.1-2,7.9-5.6,9.9h-0.1
	v19.3L12.7,274.4L12.7,274.4z M9.1,276.3v-21.2H5.2c-0.9,0-1.6,0.7-1.6,1.6v18.2c0,0.9,0.7,1.6,1.6,1.6h3.4
	C8.7,276.4,8.9,276.3,9.1,276.3z M14.8,245.2c0-2.9,2.3-5.2,5.2-5.2c3.9,0,7.5,4.7,7.5,9.6c0,0.6,0,1.3-0.1,1.9c0.5,0,1,0,1.5,0.1
	c0.5,0,2.4,0.1,2.8,0.1c2,0.1,3,0.2,3.7,0.3c2.7,0.6,4.6,3,4.6,5.7v0.8c0,1-0.3,1.9-0.8,2.7c0.4,0.9,0.5,1.9,0.2,2.8
	c-0.2,1.2-0.6,2.4-1.3,3.4c0.2,1,0.1,2.1-0.3,3.1c-0.2,0.6-0.4,1.1-0.6,1.7c-0.2,0.5-0.5,0.9-0.9,1.3c0.1,0.7,0,1.4-0.3,2
	c-0.2,0.6-0.4,1.1-0.7,1.6c-1.2,1.9-3.4,3.1-5.7,3h-6.2c-2.5,0-4.9-0.4-7.3-1.1c-1.6-0.3-2.7-0.5-3.6-0.7c-1,1.1-2.5,1.8-4,1.8H5.2
	c-2.9-0.1-5.1-2.4-5.2-5.3v-18.2c0-2.9,2.3-5.2,5.2-5.2h3.4c0.8,0,1.6,0.2,2.4,0.5c0.1,0,0.2-0.1,0.3-0.1
	C13.6,250.4,14.9,247.9,14.8,245.2z M6.9,272.7c-1,0-1.8-0.8-1.8-1.8s0.8-1.8,1.8-1.8s1.8,0.8,1.8,1.8l0,0
	C8.7,271.9,7.9,272.7,6.9,272.7L6.9,272.7L6.9,272.7z"/>
<path class="st0" d="M35.1,293.8c-1.3-0.3-4.7-0.3-9.6-0.5c0-1,0.3-2.1,0.3-3.6c0-4.2-3.1-7.8-5.7-7.8c-1.9,0.1-3.3,1.5-3.4,3.4
	c0.1,3.4-1.7,6.6-4.7,8.3c-0.4,0.1-0.7,0.3-1,0.5c-0.6-0.6-1.5-0.8-2.3-0.8H5.2c-1.9,0.1-3.3,1.5-3.4,3.4v18.2
	c0.1,1.9,1.5,3.3,3.4,3.4h3.4c1.4,0,2.6-0.8,3.1-2.1H12c1.5,0.5,3.1,0.8,4.7,1c2.2,0.7,4.5,1,6.8,1h6.2c1.7,0.1,3.3-0.7,4.2-2.1
	c0.2-0.4,0.4-0.8,0.5-1.3c0.3-0.7,0.3-1.4,0-2.1c1-0.7,1.6-1.7,1.8-2.9c0.4-1,0.4-2.1,0-3.1c0.9-0.8,1.5-1.9,1.6-3.1
	c0.2-0.9,0.1-1.9-0.5-2.6c0.6-0.8,0.9-1.7,1-2.6v-0.8C38.1,295.8,36.9,294.3,35.1,293.8z"/>
<path class="st1" d="M35.5,297.4c-1.1-0.2-4-0.2-8.2-0.4c0-0.9,0.2-1.8,0.2-3.1c0-3.5-2.6-6.6-4.9-6.6c-1.6,0.1-2.8,1.3-2.9,2.9
	c0.1,2.9-1.5,5.7-4,7.1c-0.3,0.1-0.6,0.2-0.9,0.4c-0.6-0.5-1.3-0.7-2-0.7H9.9c-1.6,0.1-2.8,1.3-2.9,2.9v15.5
	c0.1,1.6,1.3,2.8,2.9,2.9H13c1.2,0,2.2-0.7,2.6-1.8h0.2c0.7,0.2,1.5,0.4,4,0.9c1.8,0.6,3.8,0.9,5.7,0.9h5.3c1.4,0.1,2.7-0.6,3.5-1.8
	c0.2-0.4,0.3-0.7,0.4-1.1c0.2-0.6,0.2-1.2,0-1.8c0.8-0.6,1.3-1.4,1.5-2.4c0.3-0.8,0.3-1.8,0-2.6c0.8-0.6,1.3-1.6,1.3-2.6
	c0.2-0.8,0-1.6-0.4-2.2c0.5-0.6,0.8-1.4,0.9-2.2V301C38.2,299.3,37.1,297.8,35.5,297.4z"/>
<path class="st2" d="M12.7,314.4c0.8,0.2,1.9,0.5,4.2,0.9c0.2,0,0.3,0.1,0.5,0.2c1.9,0.5,3.9,0.8,5.9,0.8h6.2c1,0.1,1.9-0.3,2.5-1.1
	c0.2-0.3,0.3-0.7,0.4-1.1l0.1-0.2c0-0.2,0-0.5-0.1-0.7c-0.3-0.8,0.1-1.7,0.8-2.1c0.3-0.2,0.5-0.4,0.6-0.7c0.1-0.3,0.2-0.5,0.5-1.3
	c0.2-0.6,0.2-1.3,0-1.9c-0.3-0.8,0-1.7,0.7-2.1c0.3-0.2,0.6-0.8,0.8-2c0.1-0.4,0-0.8-0.3-1.1c-0.4-0.6-0.4-1.4,0-2
	c0.6-0.9,0.7-1.2,0.7-1.6v-0.8c-0.1-1-0.7-1.8-1.7-2.1c-0.5-0.1-1.4-0.1-3.1-0.2c-0.4,0-2.3-0.1-2.8-0.1c-1.2,0-2.3-0.1-3.4-0.2
	c-1,0-1.7-0.8-1.7-1.8c0-0.6,0-1.2,0.1-1.8c0.1-0.6,0.1-1.2,0.1-1.8c0-3-2.3-6-3.9-6c-0.9,0-1.6,0.7-1.6,1.6c0.2,4.1-2,7.9-5.6,9.9
	h-0.1v19.3L12.7,314.4L12.7,314.4z M9.1,316.3v-21.2H5.2c-0.9,0-1.6,0.7-1.6,1.6v18.2c0,0.9,0.7,1.6,1.6,1.6h3.4
	C8.7,316.4,8.9,316.3,9.1,316.3z M14.8,285.2c0-2.9,2.3-5.2,5.2-5.2c3.9,0,7.5,4.7,7.5,9.6c0,0.6,0,1.3-0.1,1.9c0.5,0,1,0,1.5,0.1
	c0.5,0,2.4,0.1,2.8,0.1c2,0.1,3,0.2,3.7,0.3c2.7,0.6,4.6,3,4.6,5.7v0.8c0,1-0.3,1.9-0.8,2.7c0.4,0.9,0.5,1.9,0.2,2.8
	c-0.2,1.2-0.6,2.4-1.3,3.4c0.2,1,0.1,2.1-0.3,3.1c-0.2,0.6-0.4,1.1-0.6,1.7c-0.2,0.5-0.5,0.9-0.9,1.3c0.1,0.7,0,1.4-0.3,2
	c-0.2,0.6-0.4,1.1-0.7,1.6c-1.2,1.9-3.4,3.1-5.7,3h-6.2c-2.5,0-4.9-0.4-7.3-1.1c-1.6-0.3-2.7-0.5-3.6-0.7c-1,1.1-2.5,1.8-4,1.8H5.2
	c-2.9-0.1-5.1-2.4-5.2-5.3v-18.2c0-2.9,2.3-5.2,5.2-5.2h3.4c0.8,0,1.6,0.2,2.4,0.5c0.1,0,0.2-0.1,0.3-0.1
	C13.6,290.4,14.9,287.9,14.8,285.2z M6.9,312.7c-1,0-1.8-0.8-1.8-1.8s0.8-1.8,1.8-1.8s1.8,0.8,1.8,1.8l0,0
	C8.7,311.9,7.9,312.7,6.9,312.7L6.9,312.7z M33.1,288.3c-0.7-1-1.3-2.1-1.7-3.2c-0.6-1.1-0.7-2.5-0.1-3.6c0.5-0.9,1.7-2,3-1.3
	c0.9,0.6,1.5,1.5,1.7,2.5c1-0.4,2-0.4,3-0.1c1.1,0.7,1.4,2.1,0.7,3.2l0,0c-0.7,1.1-1.8,1.8-3,2C35.5,288.1,34.3,288.3,33.1,288.3z"
	/>
<path class="st6" d="M6.1,327.4c0.2,0.2,0.2,0.6,0,0.8c-0.2,0.2-0.6,0.2-0.8,0c-1.2-1.2-1.2-3.2,0-4.4l2.1-2.1
	c1.2-1.2,3.2-1.2,4.4,0s1.2,3.2,0,4.4L9.9,328c-0.2,0.2-0.6,0.2-0.8,0s-0.2-0.6,0-0.8l1.9-1.9c0.7-0.7,0.7-1.9,0-2.7
	c-0.7-0.7-1.9-0.7-2.7,0l0,0l-2.1,2.1C5.4,325.5,5.4,326.7,6.1,327.4z M6.9,327.6c-0.2-0.2-0.2-0.6,0-0.8c0.2-0.2,0.6-0.2,0.8,0
	c1.2,1.2,1.2,3.2,0,4.4l-2.1,2.1c-1.2,1.2-3.2,1.2-4.4,0s-1.2-3.2,0-4.4L3,327c0.2-0.2,0.6-0.2,0.8,0s0.2,0.6,0,0.8l0,0L2,329.6
	c-0.7,0.7-0.7,1.9,0,2.7c0.7,0.7,1.9,0.7,2.7,0l2.1-2.1C7.6,329.5,7.6,328.3,6.9,327.6L6.9,327.6z"/>
<g>
	<path class="st6" d="M14.6,342.9H2.4c-1,0-1.8-0.8-1.8-1.8s0.8-1.8,1.8-1.8h12.2c1,0,1.8,0.8,1.8,1.8S15.6,342.9,14.6,342.9z
		 M2.4,340.3c-0.4,0-0.8,0.4-0.8,0.8s0.4,0.8,0.8,0.8h12.2c0.4,0,0.8-0.4,0.8-0.8s-0.4-0.8-0.8-0.8H2.4z"/>
	<path class="st6" d="M13.5,350.7h-10c-0.8,0-1.5-0.7-1.5-1.5v-7.1h13v7.2C15,350,14.3,350.7,13.5,350.7z M3,343.1v6.2
		c0,0.2,0.2,0.4,0.4,0.4h10.1c0.2,0,0.4-0.2,0.4-0.4v-6.2H3z"/>
	<path class="st6" d="M8.1,339.2h1v11.5h-1V339.2z"/>
	<path class="st6" d="M8.9,340.2H6.3c-1.3,0-2.5-1.1-2.5-2.5s1.2-2.5,2.5-2.5s2.5,1.1,2.5,2.5L8.9,340.2L8.9,340.2z M6.3,336.2
		c-0.8,0-1.5,0.7-1.5,1.5s0.7,1.5,1.5,1.5h1.5v-1.5C7.9,336.8,7.2,336.2,6.3,336.2z"/>
	<path class="st6" d="M10.6,340.2H8.1v-2.5c0-1.4,1.1-2.5,2.5-2.5s2.5,1.1,2.5,2.5S12,340.2,10.6,340.2z M9.1,339.2h1.5
		c0.8,0,1.5-0.7,1.5-1.5s-0.7-1.5-1.5-1.5s-1.5,0.6-1.5,1.5V339.2z"/>
</g>
<path class="st9" d="M20,391c-11,0-20-9-20-20s9-20,20-20s20,9,20,20S31,391,20,391z M20,353.5c-9.7,0-17.5,7.8-17.5,17.5
	s7.8,17.5,17.5,17.5s17.5-7.8,17.5-17.5S29.7,353.5,20,353.5z"/>
<path class="st9" d="M20,361c5.5,0,10,4.5,10,10s-4.5,10-10,10s-10-4.5-10-10S14.5,361,20,361z"/>
<path class="st10" d="M20,391c11,0,20,9,20,20s-9,20-20,20s-20-9-20-20S9,391,20,391z"/>
<path class="st11" d="M2.5,411c0,9.7,7.8,17.5,17.5,17.5s17.5-7.8,17.5-17.5s-7.8-17.5-17.5-17.5S2.5,401.3,2.5,411z M0,411
	c0-11,9-20,20-20s20,9,20,20s-9,20-20,20S0,422,0,411z"/>
<path class="st0" d="M20,470.2c-10.6,0-19.2-8.6-19.2-19.2s8.6-19.2,19.2-19.2s19.2,8.6,19.2,19.2l0,0
	C39.2,461.6,30.6,470.2,20,470.2z"/>
<path class="st12" d="M20,434.3c-9.2,0-16.7,7.5-16.7,16.7s7.5,16.7,16.7,16.7s16.7-7.5,16.7-16.7l0,0
	C36.7,441.8,29.2,434.3,20,434.3z M16.5,463.8l1.7-11.1l-9.5-0.1l14-14.4l-1.6,11.1l10.1,0.1L16.5,463.8z"/>
<path class="st0" d="M20,510.2c-10.6,0-19.2-8.6-19.2-19.2s8.6-19.2,19.2-19.2s19.2,8.6,19.2,19.2l0,0
	C39.2,501.6,30.6,510.2,20,510.2z"/>
<path class="st13" d="M20,474.3c-9.2,0-16.7,7.5-16.7,16.7s7.5,16.7,16.7,16.7s16.7-7.5,16.7-16.7l0,0
	C36.7,481.8,29.2,474.3,20,474.3z M16.5,503.8l1.7-11.1l-9.5-0.1l14-14.4l-1.6,11.1l10.1,0.1L16.5,503.8z"/>
<path class="st14" d="M14.1,515.9l-2.8-0.4c-0.7-0.2-1.3-0.6-1.6-1.3l-1.2-2.6c-0.4-0.9-1.6-0.9-2,0l-1.2,2.6
	c-0.3,0.7-0.9,1.1-1.6,1.3l-2.8,0.4c-0.8,0.1-1.2,1.2-0.6,1.8l2.1,2.1c0.5,0.5,0.7,1.2,0.6,1.9l-0.5,3c-0.2,0.9,0.8,1.6,1.6,1.1
	l2.4-1.3c0.6-0.4,1.4-0.4,2.1,0l2.4,1.3c0.8,0.4,1.7-0.2,1.6-1.1l-0.5-3c-0.1-0.7,0.1-1.4,0.6-1.9l2.1-2.1
	C15.3,517.1,14.9,516,14.1,515.9"/>
<path class="st4" d="M13,532.3l-1.7,1.8c-0.7,0.7-1,1.7-0.8,2.7l0.4,2.6c0.1,0.2-0.2,0.4-0.4,0.3l-1.9-1.1c-0.9-0.5-2.1-0.5-3,0
	l-1.9,1.1c-0.2,0.1-0.4-0.1-0.4-0.3l0.4-2.6c0.2-1-0.2-2-0.8-2.7l-1.6-1.8c-0.1-0.2,0-0.5,0.2-0.5l2.2-0.3c1-0.2,1.9-0.9,2.3-1.8
	l1-2.2c0.1-0.2,0.4-0.2,0.5,0l1,2.2c0.4,1,1.3,1.6,2.3,1.8l2.2,0.3C13.1,531.9,13.1,532.1,13,532.3 M13.5,530.9l-2.7-0.4
	c-0.7-0.1-1.3-0.6-1.5-1.2l-1.2-2.7c-0.4-0.9-1.5-0.9-1.9,0l-1.1,2.6c-0.3,0.7-0.9,1.1-1.6,1.3l-2.6,0.4c-0.8,0.1-1.2,1.2-0.6,1.8
	l2,2.1c0.5,0.5,0.7,1.2,0.6,1.9l-0.5,3c-0.2,0.9,0.8,1.6,1.5,1.1l2.3-1.3c0.6-0.4,1.4-0.4,2,0l2.3,1.3c0.8,0.4,1.6-0.2,1.5-1.1
	l-0.5-3c-0.1-0.7,0.1-1.4,0.6-1.9l2-2.1C14.7,532.1,14.3,531,13.5,530.9"/>
<g id="动态淘宝">
	<g id="taobao">
		<g id="编组">
			<path id="Stroke-1" class="st6" d="M12,557.5H4.5c-2.5,0-4.5-2.1-4.5-4.6v-7.3c0-2.5,2-4.5,4.5-4.6H12c2.5,0,4.6,2.1,4.5,4.6l0,0
				v7.3C16.5,555.4,14.5,557.5,12,557.5z M4.5,542c-2,0-3.5,1.6-3.5,3.6v7.3c0,1.9,1.6,3.5,3.5,3.6H12c2,0,3.5-1.6,3.5-3.6l0,0v-7.3
				c0-2-1.6-3.6-3.5-3.6H4.5z"/>
			<path id="Fill-3" class="st15" d="M3.2,548.5c-0.2-0.1-0.3-0.2-0.3-0.4s0.1-0.3,0.2-0.4c0.2-0.1,0.3-0.1,0.5,0l0.3,0.1
				c0.6,0.3,1,0.8,1.2,1.4c0.2,0.6,0.1,1.3-0.3,1.9l-1.3,2c-0.1,0.1-0.3,0.2-0.4,0.2c-0.2,0-0.3-0.1-0.4-0.2c-0.1-0.1-0.1-0.3,0-0.5
				l1.3-2c0.2-0.3,0.3-0.7,0.2-1.1c-0.1-0.4-0.4-0.7-0.7-0.9L3.2,548.5z M4.1,546.5c-0.3,0-0.5-0.1-0.7-0.4
				c-0.2-0.4-0.1-0.9,0.3-1.1c0.1-0.1,0.3-0.1,0.4-0.1c0.4,0,0.8,0.4,0.8,0.8l0,0C4.9,546.1,4.5,546.5,4.1,546.5L4.1,546.5z
				 M7.5,545.8c1.3-0.5,2.6-0.7,4-0.7s2.6,1.1,2.6,2.6l0,0v3.9c0,1.3-1,2.4-2.4,2.4l0,0h-1.3c-0.3,0-0.5-0.2-0.5-0.5l0,0
				c0-0.3,0.2-0.5,0.5-0.5h1.2c0.8,0,1.4-0.6,1.4-1.5v-3.9c0-0.9-0.7-1.6-1.6-1.6l0,0c-1.3,0-2.7,0.3-3.9,0.8L6.9,547H6.8
				c-0.2,0.3-0.5,0.6-0.8,0.9c-0.2,0.2-0.5,0.2-0.7,0s-0.2-0.5,0-0.7c0.6-0.6,1.1-1.4,1.4-2.3v-0.2c0.1-0.2,0.2-0.3,0.4-0.3
				c0.2,0,0.4,0,0.5,0.2c0.1,0.1,0.1,0.3,0.1,0.5l-0.1,0.2C7.6,545.5,7.5,545.6,7.5,545.8L7.5,545.8z M11.4,551.9l-0.7,0.3
				c-0.8,0.4-1.8,0.6-2.7,0.6H7.7c-0.9-0.1-1.5-0.8-1.5-1.6c0-0.3,0.2-0.5,0.5-0.5s0.5,0.2,0.5,0.5l0,0c0,0.3,0.2,0.7,0.5,0.7H8
				c0.3,0,0.6,0,0.8-0.1v-1.6H6.7c-0.3,0-0.5-0.2-0.5-0.5s0.2-0.5,0.4-0.5l0,0h2.2v-0.6h-1l-0.2,0.2l-0.1,0.1
				C7.4,549,7.2,549.1,7,549c-0.2,0-0.3-0.2-0.3-0.4s0-0.3,0.1-0.4H7c0.3-0.3,0.5-0.6,0.6-1c0.1-0.3,0.3-0.4,0.6-0.3
				c0.3,0.1,0.4,0.3,0.3,0.6l0,0l-0.1,0.1h3.3c0.3,0,0.5,0.2,0.5,0.5s-0.2,0.5-0.5,0.5h-2v0.6h2c0.3,0,0.5,0.2,0.5,0.5
				s-0.2,0.5-0.5,0.5h-2v1.4c0.2-0.1,0.3-0.1,0.5-0.2L11,551c0-0.2,0.1-0.4,0.4-0.5c0.2-0.1,0.4,0,0.5,0.2l0.3,0.9
				c0.1,0.1,0.1,0.3,0,0.5s-0.4,0.3-0.7,0.2c-0.1,0-0.1-0.1-0.2-0.2L11.4,551.9z"/>
		</g>
	</g>
</g>
<path class="st6" d="M6,564v-5.5c0-0.3,0.2-0.5,0.5-0.5s0.5,0.2,0.5,0.5v5.5h5.5c0.3,0,0.5,0.2,0.5,0.5s-0.2,0.5-0.5,0.5H7v5.5
	c0,0.3-0.2,0.5-0.5,0.5S6,570.8,6,570.5V565H0.5c-0.3,0-0.5-0.2-0.5-0.5s0.2-0.5,0.5-0.5H6z"/>
<path class="st16" d="M6,577v-5.5c0-0.3,0.2-0.5,0.5-0.5s0.5,0.2,0.5,0.5v5.5h5.5c0.3,0,0.5,0.2,0.5,0.5s-0.2,0.5-0.5,0.5H7v5.5
	c0,0.3-0.2,0.5-0.5,0.5S6,583.8,6,583.5V578H0.5c-0.3,0-0.5-0.2-0.5-0.5s0.2-0.5,0.5-0.5H6z"/>
<path class="st4" d="M7.2,590.5l4.7,4.7c0.2,0.2,0.2,0.5,0,0.7s-0.5,0.2-0.7,0l0,0l-4.7-4.7l-4.7,4.7c-0.2,0.2-0.5,0.2-0.7,0
	s-0.2-0.5,0-0.7l0,0l4.7-4.7l-4.7-4.7c-0.2-0.2-0.2-0.5,0-0.7s0.5-0.2,0.7,0l4.7,4.7l4.7-4.7c0.2-0.2,0.5-0.2,0.7,0s0.2,0.5,0,0.7
	L7.2,590.5z"/>
<path class="st6" d="M7.2,603.5l4.7,4.7c0.2,0.2,0.2,0.5,0,0.7s-0.5,0.2-0.7,0l0,0l-4.7-4.7l-4.7,4.7c-0.2,0.2-0.5,0.2-0.7,0
	s-0.2-0.5,0-0.7l0,0l4.7-4.7l-4.7-4.7c-0.2-0.2-0.2-0.5,0-0.7s0.5-0.2,0.7,0l4.7,4.7l4.7-4.7c0.2-0.2,0.5-0.2,0.7,0s0.2,0.5,0,0.7
	L7.2,603.5z"/>
<g>
	<path class="st4" d="M1.4,610.5h10.2c0.3,0,0.4,0.3,0.4,0.5s-0.2,0.4-0.4,0.4H1.4c-0.3,0-0.4-0.3-0.4-0.5S1.2,610.5,1.4,610.5z
		 M7,613.7v8.8c0,0.3-0.2,0.5-0.5,0.5S6,622.8,6,622.5v-8.8c0-0.3,0.2-0.5,0.5-0.5S7,613.5,7,613.7z"/>
	<path class="st4" d="M6.5,614.1l-5.7,5.6c-0.2,0.2-0.5,0.2-0.7,0s-0.2-0.5,0-0.6l5.9-5.9c0.1-0.1,0.3-0.2,0.4-0.1
		c0.1,0,0.3,0,0.4,0.1l5.9,5.9c0.2,0.2,0.2,0.5,0,0.6c-0.2,0.2-0.4,0.2-0.6,0L6.5,614.1z"/>
</g>
<g>
	<path class="st6" d="M1.4,623.5h10.2c0.3,0,0.4,0.3,0.4,0.5s-0.2,0.4-0.4,0.4H1.4c-0.3,0-0.4-0.3-0.4-0.5S1.2,623.5,1.4,623.5z
		 M7,626.7v8.8c0,0.3-0.2,0.5-0.5,0.5S6,635.8,6,635.5v-8.8c0-0.3,0.2-0.5,0.5-0.5S7,626.5,7,626.7z"/>
	<path class="st6" d="M6.5,627.1l-5.7,5.6c-0.2,0.2-0.5,0.2-0.7,0s-0.2-0.5,0-0.6l5.9-5.9c0.1-0.1,0.3-0.2,0.4-0.1
		c0.1,0,0.3,0,0.4,0.1l5.9,5.9c0.2,0.2,0.2,0.5,0,0.6c-0.2,0.2-0.4,0.2-0.6,0L6.5,627.1z"/>
</g>
<path class="st4" d="M31.4,672.2H8.2c-4,0-7.2-3.1-7.2-7.1v-18.5c0.1-4,3.3-7.1,7.2-7.1h13v3h-13c-2.3,0-4.2,1.8-4.2,4.1v18.5
	c0,2.3,2,4.1,4.2,4.1h23.1c2.3,0,4.2-1.8,4.2-4.1v-8.9h3v8.9C38.5,669,35.3,672.2,31.4,672.2z"/>
<path class="st4" d="M15,659.6l-2.8-1.1l0.6-1.4c2-5,7.8-10.1,14.8-10.1h4l-6.1-6l2.1-2.2L39,650H27.6c-5.6,0-10.4,4.3-12,8.3
	L15,659.6z"/>
<path class="st5" d="M35.6,696.2v8.9c-0.1,2.3-2,4.1-4.2,4.1H8.2c-2.3,0-4.2-1.8-4.2-4.1v-18.5c0-2.3,2-4.1,4.2-4.1h13v-3h-13
	c-4,0-7.2,3.1-7.2,7.1v18.5c0,4,3.3,7.1,7.2,7.1h23.1c4,0,7.2-3.1,7.2-7.1v-8.9H35.6z"/>
<path class="st5" d="M27.6,687c-7,0-12.8,5.1-14.8,10.2l-0.6,1.4l2.8,1.1l0.6-1.4c1.6-4,6.4-8.3,12-8.3H39l-11.4-11.1l-2.1,2.1
	l6.1,6H27.6z"/>
<path class="st6" d="M35.6,736.2v8.9c-0.1,2.3-2,4.1-4.2,4.1H8.2c-2.3,0-4.2-1.8-4.2-4.1v-18.5c0-2.3,2-4.1,4.2-4.1h13v-3h-13
	c-4,0-7.2,3.1-7.2,7.1v18.5c0,4,3.3,7.1,7.2,7.1h23.1c4,0,7.2-3.1,7.2-7.1v-8.9H35.6z"/>
<path class="st6" d="M27.6,727c-7,0-12.8,5.1-14.8,10.2l-0.6,1.4l2.8,1.1l0.6-1.4c1.6-4,6.4-8.3,12-8.3H39l-11.4-11.1l-2.1,2.1
	l6.1,6H27.6z"/>
<g transform="translate(0 .28)">
	<path class="st6" d="M1.4,768c-0.8,0-1.4-0.6-1.4-1.4v-6.3c0-0.8,0.6-1.4,1.4-1.4s1.4,0.6,1.4,1.4v6.3C2.9,767.4,2.2,768,1.4,768z
		 M1.4,760.1c-0.1,0-0.2,0.1-0.2,0.2v6.3c0,0.3,0.5,0.3,0.5,0v-6.3C1.7,760.2,1.6,760.1,1.4,760.1z M6,768c-0.8,0-1.4-0.6-1.4-1.4
		v-9.2c0-0.8,0.6-1.4,1.4-1.4s1.4,0.6,1.4,1.4v9.1C7.4,767.4,6.8,768,6,768z M6,757.2c-0.1,0-0.2,0.1-0.2,0.2v9.1
		c0,0.3,0.5,0.3,0.5,0v-9.1C6.2,757.3,6.1,757.2,6,757.2z M10.6,768c-0.8,0-1.4-0.6-1.4-1.4v-2.9c0-0.8,0.6-1.4,1.4-1.4
		c0.8,0,1.4,0.6,1.4,1.4v2.9C12,767.4,11.4,768,10.6,768z M10.6,763.5c-0.1,0-0.2,0.1-0.2,0.2v2.9c0,0.3,0.5,0.3,0.5,0v-2.9
		C10.8,763.6,10.7,763.5,10.6,763.5z"/>
</g>
<path class="st4" d="M10.3,803.7h2.5v-19.6h-2.5V803.7z M25,781.5h10.4c1.3,0,2.5,0.6,3.3,1.7c0.7,1,0.9,2.3,0.6,3.5l-4.5,14.7
	c-0.7,2.8-3.1,4.8-6,4.9H5.6c-1.8,0.1-3.5-0.8-4.3-2.4c-0.4-0.8-0.7-1.6-0.7-2.5v-14.9c0-1.8,0.9-3.4,2.5-4.3
	c0.8-0.4,1.6-0.6,2.5-0.7h6.2l6.8-8.5c1.4-1.5,3.8-1.6,5.4-0.3c0.9,0.8,1.3,2,1.2,3.2L25,781.5z M35.1,784H22.2l0.3-2.9l0.4-5.1
	c0.2-0.7-0.3-1.4-1-1.5l0,0c-0.5-0.1-1,0-1.2,0.4l-6.4,8.2l-0.8,1.1H5.1c-0.3,0-0.6,0.1-0.8,0.3c-0.8,0.4-1.3,1.2-1.2,2.1v14.9
	c0,0.5,0.1,0.9,0.4,1.2c0.4,0.8,1.2,1.2,2.1,1.1h23.3c0.5,0,1-0.1,1.4-0.4c1.1-0.5,1.9-1.6,2.1-2.8l4.4-14.6l2.5,0.6l-2.5-0.6
	c0.1-0.5,0-1-0.1-1.4C36.2,784.2,35.7,784,35.1,784l0.3-2.5L35.1,784z"/>
<path class="st6" d="M38.8,823.2c-0.8-1.1-2-1.7-3.3-1.7H25l0.2-5.6c0.1-1.2-0.4-2.4-1.2-3.2c-1.6-1.4-4-1.3-5.4,0.3l-6.8,8.5H5.6
	c-0.9,0.1-1.7,0.3-2.5,0.7c-1.6,0.9-2.5,2.5-2.5,4.3v14.9c0,0.9,0.3,1.7,0.7,2.5c0.8,1.6,2.5,2.5,4.3,2.4h23.3
	c2.9-0.1,5.3-2.1,6-4.9l4.5-14.7C39.6,825.4,39.4,824.2,38.8,823.2z M3.5,842.6c-0.3-0.4-0.4-0.8-0.4-1.2v-14.9
	c0-0.9,0.5-1.7,1.2-2.1c0.3-0.2,0.5-0.2,0.8-0.3h5.1v19.6H5.6C4.7,843.8,3.9,843.4,3.5,842.6z M36.8,825.9l-4.4,14.6
	c-0.2,1.2-1,2.3-2.1,2.8c-0.4,0.3-0.9,0.4-1.4,0.4H12.8v-19.6h0.7l0.8-1.1l6.4-8.2c0.3-0.4,0.8-0.6,1.2-0.4c0.7,0.1,1.1,0.8,1,1.5
	l0,0l-0.4,5.1l-0.3,2.9h12.9c0.5,0,1.1,0.2,1.5,0.5C36.8,825,36.9,825.5,36.8,825.9z"/>
<path class="st5" d="M10.3,883.7h2.5v-19.6h-2.5V883.7z M25,861.5h10.4c1.3,0,2.5,0.6,3.3,1.7c0.7,1,0.9,2.3,0.6,3.5l-4.5,14.7
	c-0.7,2.8-3.1,4.8-6,4.9H5.6c-1.8,0.1-3.5-0.8-4.3-2.4c-0.4-0.8-0.7-1.6-0.7-2.5v-14.9c0-1.8,0.9-3.4,2.5-4.3
	c0.8-0.4,1.6-0.6,2.5-0.7h6.2l6.8-8.5c1.4-1.5,3.8-1.6,5.4-0.3c0.9,0.8,1.3,2,1.2,3.2L25,861.5z M35.1,864H22.2l0.3-2.9l0.4-5.1
	c0.2-0.7-0.3-1.4-1-1.5c-0.5-0.1-1,0-1.2,0.4l-6.4,8.1l-0.8,1.1H5.1c-0.3,0-0.6,0.1-0.8,0.3c-0.8,0.4-1.3,1.2-1.2,2.1v14.9
	c0,0.5,0.1,0.9,0.4,1.2c0.4,0.8,1.2,1.2,2.1,1.1h23.3c0.5,0,1-0.1,1.4-0.4c1.1-0.5,1.9-1.6,2.1-2.8l4.4-14.6l2.5,0.6l-2.5-0.6
	c0.1-0.5,0-1-0.1-1.4C36.2,864.2,35.7,864,35.1,864l0.3-2.5C35.4,861.5,35.1,864,35.1,864z"/>
<g>
	<path class="st6" d="M9.3,901.5H5.6c-0.9,0.1-1.7,0.3-2.5,0.7c-1.6,0.9-2.5,2.5-2.5,4.3v14.9c0,0.9,0.3,1.7,0.7,2.5
		c0.8,1.6,2.5,2.5,4.3,2.4h3.7V901.5z"/>
	<path class="st6" d="M38.8,903.2c-0.8-1.1-2-1.7-3.3-1.7H25l0.2-5.6c0.1-1.2-0.4-2.4-1.2-3.2c-1.6-1.4-4-1.3-5.4,0.3l-6.8,8.5l0,0
		v24.7h17.1c2.9-0.1,5.3-2.1,6-4.9l4.5-14.7C39.6,905.4,39.4,904.2,38.8,903.2z"/>
</g>
</svg>
