<svg id="图层_1" data-name="图层 1" xmlns="http://www.w3.org/2000/svg" viewBox="0 0 2239.33 1023.67"><defs><style>.cls-1{fill:#00a1d6;}</style></defs><path class="cls-1" d="M621,475.26c1.22,6.94,2.46,7.84,9.53,6.24,8.29-1.82,16.51-4,24.73-6.05,12.09-2.94,12.09-2.91,11.81-15.54h0c-.1-2,0-4-.29-5.92-3.07-26.71-5.89-53.49-9.31-80.17-2.21-16.86-5-33.66-8-50.39-1.5-8.28-2.46-8.7-10-7.51-11.8,1.82-23.58,3.87-35.38,5.95-9.6,1.69-10.05,2.3-8.35,12.06Q608.3,404.61,621,475.26Z" transform="translate(-0.35 -0.1)"/><path class="cls-1" d="M799.22,926.2c-2.05-19.32-4.28-38.61-6.17-58-2.66-27.2-4.9-54.48-7.74-81.71-4.19-39.8-8.87-79.56-13.15-119.36-4.38-41-9.28-81.89-16.19-122.55-4.48-26.27-4.35-26.36-33.3-26.36h0c-27.42,1.4-57.81,6.91-88,13.94-5.6,1.32-6.36,3.84-5.34,9.25,5.57,29.59,10.43,59.28,16.09,88.84q21.26,110.85,42.87,221.63c6,30.68,11.84,61.42,17.91,92.1,1.7,8.73,2,8.77,10.62,8,6.5-.64,13-1.6,19.58-2.24,18.08-1.79,36.18-3.36,54.26-5.25,9.12-.93,9.53-1.69,9.12-11.16C799.61,930.94,799.48,928.57,799.22,926.2Z" transform="translate(-0.35 -0.1)"/><path class="cls-1" d="M628.3,756.17a133.6,133.6,0,0,0-16.9-16.31c-18.13-14.46-38-25.85-58.83-35.71-42-19.89-85.76-34.13-130.77-44.81C370.35,647.15,318.34,639.89,265.46,640a381.36,381.36,0,0,0-50.84,4.19c-8.54,1.16-9.21.45-10-7.07-3.87-39.5-8-79-11.38-118.46-3.46-40.31-6.82-80.68-9.15-121-3-51.15-5.67-102.31-7-153.49-1.53-58.42-.83-116.83-.09-175.21q0-6.56.63-13.09c1.6-16.22.93-32.57,1.41-48.85.19-6.36-1.44-7.68-7.77-6.49a131.93,131.93,0,0,0-26.59,8.28C98.47,28.06,52.34,47.61,6,66.8,1.21,68.82-.45,71,.7,76.53q13,61.64,23.68,123.74Q37.52,276.42,48.69,352.9q6.87,46.46,13.21,93,6.48,48.33,12.32,96.71c3.52,29.15,6.71,58.32,10,87.43,3.65,31.55,7.39,63,10.72,94.57,2.88,26.77,5.15,53.68,7.77,80.52,3.59,37.11,7.49,74.18,10.82,111.29,2.84,32,5.05,64.08,7.64,96.1.71,8.93,2,10.4,10.49,10.72,10.05.35,20.16.06,30.24.06,13.91.1,27.8-.54,41.71-1.31,45.65-2.49,90.82-9,135.71-17.5,62.38-11.83,122.17-31.86,178.57-62,32.76-17.5,63.56-38.11,89.06-66,15.2-16.7,27.74-35.32,33.24-57.9s4.64-44.18-11.93-62.42Zm-275,173.37a113.54,113.54,0,0,1-121.57-47.15,113.51,113.51,0,0,0,43.91-2.92c57.63-15.35,93.78-73.59,82-132.05a113.38,113.38,0,0,0-16.86-40.64,113.54,113.54,0,0,1,96.19,88C450.16,854.66,412.77,914.88,353.26,929.54Z" transform="translate(-0.35 -0.1)"/><path class="cls-1" d="M676.63,381.53c3.2,26.78,6.34,53.55,9.66,80.3,1,7.8,1.92,8.73,9.57,8.38,13.15-.55,26.3-1.51,39.41-2.47,7.39-.54,7.55-.7,6.85-8.6q-5-54.51-10.24-109c-1.12-11.84-2.94-23.65-3.87-35.48-.41-5-2.62-6.78-7-7.78-7.62-1.75-15.39-1.18-22.94-1.6h0c-7.93.29-15.68-.22-23.39,1.35-4.86,1-6.84,2.65-6,8.73C671.87,337.38,674,359.46,676.63,381.53Z" transform="translate(-0.35 -0.1)"/><path class="cls-1" d="M2176.87,471.55c0,.8.06,1.6,0,2.4-.42,5.73,1.44,8.38,7.74,8.86q19,1.62,38.13,1.79c9.7.07,9.86,0,9.86-9.66.09-23,0-46,0-69h0q0-33.32,0-66.61c-.06-11.9,2.59-13.75-12.48-15.26-12.34-1.21-24.63-1.85-37-1.92-9-.06-9,.16-9.15,9.12-.09,2.4,0,4.77.06,7.13Q2175.4,405,2176.87,471.55Z" transform="translate(-0.35 -0.1)"/><path class="cls-1" d="M936.46,824.66c-2.81-31.19-5.88-62.35-8.51-93.57-2.75-33.65-5-67.28-7.67-100.9-3.52-43.89-7.39-87.72-10.88-131.61q-4.8-59.93-9.15-119.87c-3.23-43.5-6.46-87-9.41-130.58-2.68-40.41-5.05-80.81-7.58-121.18-.54-8.83-2.24-11.1-11-11.9-6.91-.64-13.92-.13-18.56-.13h0c-16.7-1.25-30.9,1.41-45.11,2.72s-28.31,4.32-42.45,6.2c-5.37.74-6.24,3.46-5.28,8.16q2.8,14,5.31,28,11,62,19.84,124.41c4.32,30.61,8.92,61.16,13,91.81,4.41,33.4,8.44,66.86,12.5,100.32,2.76,22.84,5.28,45.69,7.87,68.53,2.82,24.82,5.67,49.65,8.35,74.44,2.69,25.27,5.19,50.51,7.71,75.75,2.85,27.61,5.86,55.19,8.35,82.83,2.79,30.42,4.67,60.91,8,91.27,1.21,11.48.89,23,2.88,34.39.93,5.21,2.53,7.74,8,7.58,24-.67,47.92,2.14,71.94,2.72,9.19.22,9.79-.32,9.06-8.83Q940.12,864.95,936.46,824.66Z" transform="translate(-0.35 -0.1)"/><path class="cls-1" d="M1808.82,347.91c4.64,37.78,9.5,75.49,13.69,113.31,1.21,10.71,3.55,9.47,10.91,9,11.19-.67,22.36-1.66,33.56-2.27,12.57-.71,13-1.06,11.29-14l-.19-1.19c-2.08-20.5-4.23-41-6.24-61.51-2.53-25.28-5-50.55-7.33-75.79-.48-5.25-2.94-7.45-7.84-8.57-7.67-1.7-15.38-1.22-25.17-1.79-5.25.35-12.61.54-20,1.21-5.6.48-7.94,3.78-7,9.76Q1806.88,332,1808.82,347.91Z" transform="translate(-0.35 -0.1)"/><path class="cls-1" d="M1039.31,389.14c.58,28.12,1.41,56.24,2.21,84.36.22,8.42.38,8.16,8.32,9.15a321.76,321.76,0,0,0,37,1.92c10.27.13,10.4.06,10.4-10.27.09-23,0-46,0-69h.06q0-35.13-.06-70.19c0-9.21-.42-9.21-8.74-10.49a255.57,255.57,0,0,0-41.62-2.59c-9.43.13-10,.22-9.37,10C1038.67,351.14,1038.9,370.11,1039.31,389.14Z" transform="translate(-0.35 -0.1)"/><path class="cls-1" d="M1747.27,419.89c3.23,18.68,6.87,37.33,10,56.08.83,4.92,2.53,7.07,7.58,5.85,10.53-2.53,21.09-4.89,31.64-7.26,4-.93,6.11-3.14,6-7.42-.06-2.76,0-5.57-.09-8.32-.84-27-5.22-53.59-8.42-80.33-2.17-18.46-5.5-36.76-8.15-55.18-.74-5-2.44-8.51-8-7.65-15.58,2.46-31.16,5-46.61,7.55,0,2-.13,3.17,0,4.29Q1739.15,373.7,1747.27,419.89Z" transform="translate(-0.35 -0.1)"/><path class="cls-1" d="M2064.9,737.52c-1.89-22.14-3.48-44.31-5.28-66.44-2.81-34.78-5.85-69.55-8.63-104.36-1.83-23.7-3.39-47.47-5.19-71.18-2.94-38.77-6-77.51-8.92-116.28-1.83-24.12-3.36-48.24-5.15-72.43-2.82-37.56-5.76-75.15-8.48-112.73-1.7-22.94-3.29-45.91-4.41-68.88-.32-6.59-3.27-9.34-8.93-10a104.1,104.1,0,0,0-10.46-.6c-32.22-.71-64,3.9-95.72,9.31-7.61,1.28-7.8,1.56-6.36,9.53,8,44.43,15.7,88.93,22.1,133.66q9,63,17.53,126c3.65,27.09,6.91,54.28,10.21,81.41q5.51,46.05,10.68,92.13c2.72,24.41,5.15,48.89,7.78,73.33,2.75,26,5.79,52,8.31,78,2.79,28.41,5.19,56.88,7.71,85.32,2.92,32.38,5.89,64.75,8.61,97.16.93,10.62.61,10.62,11.58,10.91,17,.51,34,.12,51,2.08,8.39,1,16.93.16,26.94.16-2.18-26.43-4.13-52.08-6.27-77.68C2070.69,803.1,2067.69,770.31,2064.9,737.52Z" transform="translate(-0.35 -0.1)"/><path class="cls-1" d="M1931.66,890c-2.85-27.22-5.76-54.38-8.51-81.64-2.62-26-5-52.08-7.74-78.09-3.46-32.31-7.23-64.59-11-96.87-3.55-30.29-7.3-60.59-12.64-90.63-4.35-24.34-5-24.53-32-24.53h0c-28.44,1.37-59.25,6.88-89.74,14-4.57,1.09-5.66,3.68-5,7.71q1.65,10.56,3.58,21.08c9.6,51,19.13,102,28.92,152.92q22.08,115,44.44,229.82c1.63,8.44,2.2,8.92,10.94,8.12,16.92-1.56,33.84-3.36,50.74-5.18,9.21-1,18.39-2.21,27.64-3.26,4.38-.51,5.72-2.88,5.21-7.33C1934.7,920.8,1933.23,905.41,1931.66,890Z" transform="translate(-0.35 -0.1)"/><polygon class="cls-1" points="1020.18 431.15 1020.18 431.15 1020.18 431.15 1020.18 431.15"/><path class="cls-1" d="M2239.64,957.17c-.1-2,0-4,0-6V833.75h0c-1.28-52.27-.16-99.17-1.76-146.07-1.56-44-.83-88.23-3.23-132.28-.83-15-1.53-15.77-15.54-18.46-16.54-3.17-33.21-2.24-49.85-2.56s-33.2,2-49.77,3.26c-9.54.77-10.46,2.27-9.89,10.72,1.44,19.39,2.88,38.77,4.61,58.16,3.49,38.71,7.36,77.35,10.91,116.09,3.45,37.56,6.59,75.12,10,112.64,3.71,40.73,7.58,81.39,11.26,122,.8,8.86.86,9.53,9.79,8.51,13.53-1.47,27.06-1.41,40.63-1.54,12-.16,24-.25,36-.16C2237.65,964.14,2240.05,962.32,2239.64,957.17Z" transform="translate(-0.35 -0.1)"/><path class="cls-1" d="M2117,486.78c9.24-1,18.45-1.7,27.73-2.56s10.49-1.73,10.65-11.65c.26-19.06,0-38.13,0-57.2h0c.12-27.41-.07-54.8-2-82.12-.61-8.38-.73-8.5-8.8-8.79-13.21-.48-26.23,2-39.35,2.49-4.7.16-6,2.63-5.75,6.82.16,2.36,0,4.76.19,7.16,1.47,21,3,41.91,4.41,62.9,1.76,25.3,3.59,50.64,4.93,76C2109.37,485.79,2111.8,487.32,2117,486.78Z" transform="translate(-0.35 -0.1)"/><path class="cls-1" d="M980.8,486.75c10.37-1.06,20.76-1.89,31.19-2.76,4.87-.41,6.18-3.32,6.85-7.83,2.24-14.27,1.25-28.54,1.69-44.92l-2.24-81.35c-.12-5.57,0-11.16-.38-16.7-.58-8-1.25-8.51-9.18-8.8-13.56-.48-27,2-40.5,2.53-4,.16-5.54,2.27-5.25,6.05.55,6.75,1.22,13.43,1.67,20.18,1.79,27.71,2.91,55.51,5.56,83.11,1.41,14.62,1,29.37,3.33,43.93C974.37,485.11,975.78,487.29,980.8,486.75Z" transform="translate(-0.35 -0.1)"/><path class="cls-1" d="M1104.8,952.15v-124c-.64-54.87-.35-109.73-2.21-164.53-.74-19.87-.29-39.76-.83-59.63-.48-17.88-1.41-35.73-2.34-53.58-.44-8.87-1.37-10.11-9.85-12.13a115.23,115.23,0,0,0-20.57-3.36,532.06,532.06,0,0,0-83.53,2.59c-10.75,1.12-11.55,2.66-10.59,13.5,2.27,25.72,4.29,51.41,6.47,77.13,1.66,19.77,3.32,39.51,5.21,59.28,2.75,29.63,5.79,59.18,8.51,88.84,2.69,28.82,5,57.71,7.68,86.53,2.84,31.23,5.88,62.42,8.67,93.64.92,9.92.73,10.49,10.14,9.41,17-1.95,34-1.28,51-1.6,8.16-.19,16.26-.42,24.41-.07,6.21.26,8.42-2.4,7.81-8.41A26.73,26.73,0,0,1,1104.8,952.15Z" transform="translate(-0.35 -0.1)"/><path class="cls-1" d="M1755.14,746.57a253.76,253.76,0,0,0-47.22-32.43c-37.49-20.25-77.2-34.71-118-46.29-60.24-17.18-121.63-27.07-184.27-27.87-17.85-.25-35.54,1.7-53.2,4.1-10,1.34-10.53,1.24-11.77-9-2.31-18.49-4.13-37-5.83-55.63-3.19-34-6.49-67.92-9-101.93-3.48-47.12-6.91-94.21-9.24-141.39-1.83-35.71-3.71-71.44-3.33-107.2.06-7.52-.22-15.1-.58-22.65-1.5-29.79-1.66-59.63-.25-89.39,1.73-36.47-.19-73.1,3.13-109.53.61-6.72-1-7.74-7.29-7.1-7,.7-13.56,3.42-20.06,5.85-49.62,18.3-97.22,41.49-146.39,60.72-5,2-6.62,4.7-5,9.82a63.39,63.39,0,0,1,1.38,7q16.53,79.11,29.11,159c6,37.59,12.13,75.11,17.82,112.77q6.39,43.52,12.16,87.14c3.61,27.13,7,54.26,10.36,81.42,3.62,29.11,7.23,58.22,10.65,87.33,2.85,24,5.35,48.08,7.94,72.14,2.78,25.62,5.72,51.22,8.28,76.87,2.79,27.23,5.15,54.51,7.71,81.74,2.82,29.62,5.79,59.25,8.48,88.87,2.53,28.06,4.9,56.11,6.94,84.2.45,6.43,3.52,8.12,8.93,8.12h27.77c23.77,1.48,45-.8,66.22-2.62q56.07-5,111.45-15.55c67.57-12.66,131.84-34.61,192.17-68.39,30.78-17.21,59.22-37.82,82.63-64.91,14.59-16.86,25.53-35.7,30.36-58.13C1783.06,786.5,1775.61,764.52,1755.14,746.57Zm-172.47,70.7-46.53,34a7.57,7.57,0,0,0-3.11,6.34l1.59,57.58a7.58,7.58,0,0,1-12,6.35l-46.67-33.76a7.54,7.54,0,0,0-7-1L1414.68,906a7.58,7.58,0,0,1-9.76-9.47l17.69-54.81a7.6,7.6,0,0,0-1.21-7l-35.13-45.65a7.59,7.59,0,0,1,6-12.21l57.6-.11a7.59,7.59,0,0,0,6.24-3.3L1488.66,726a7.58,7.58,0,0,1,13.45,1.93L1520,782.68a7.59,7.59,0,0,0,5.06,4.92l55.25,16.28A7.58,7.58,0,0,1,1582.67,817.27Z" transform="translate(-0.35 -0.1)"/></svg>