<?xml version="1.0" encoding="utf-8"?>
<!-- Generator: Adobe Illustrator 25.0.0, SVG Export Plug-In . SVG Version: 6.00 Build 0)  -->
<svg version="1.1" id="图层_1" xmlns="http://www.w3.org/2000/svg" xmlns:xlink="http://www.w3.org/1999/xlink" x="0px" y="0px"
	 viewBox="0 0 64 64" style="enable-background:new 0 0 64 64;" xml:space="preserve">
<style type="text/css">
	.st0{fill:#212121;}
	.st1{fill:#FFC62E;}
	.st2{fill:#FFFFFF;}
</style>
<path class="st0" d="M0,32c0,17.7,14.3,32,32,32s32-14.3,32-32S49.7,0,32,0S0,14.3,0,32z"/>
<path class="st1" d="M5.8,32c0,14.5,11.7,26.2,26.2,26.2S58.2,46.5,58.2,32c0,0,0,0,0,0C58.2,17.5,46.5,5.8,32,5.8S5.8,17.5,5.8,32
	C5.8,32,5.8,32,5.8,32z"/>
<path class="st2" d="M29.6,47.7c-0.3,0.1-0.6,0.2-0.9,0.3c-0.7,0-1.3-0.6-1.3-1.3c0,0,0,0,0,0c0-0.1,0-0.2,0.1-0.4L30,34.6l-10.5,0
	c-0.7,0-1.3-0.6-1.4-1.3c0,0,0,0,0,0c0-0.4,0.2-0.8,0.6-1.1l15.6-16c0.3-0.2,0.6-0.3,0.9-0.3c0.7,0,1.3,0.6,1.3,1.3
	c0,0.2-0.1,0.4-0.2,0.6L34,29.4h10.5c0.7,0,1.3,0.6,1.4,1.3c0,0,0,0,0,0c0,0.4-0.2,0.8-0.6,1.1C45.2,31.8,29.6,47.7,29.6,47.7z"/>
</svg>
