<?xml version="1.0" encoding="utf-8"?>
<!-- Generator: Adobe Illustrator 25.0.0, SVG Export Plug-In . SVG Version: 6.00 Build 0)  -->
<svg version="1.1" id="图层_1" xmlns="http://www.w3.org/2000/svg" xmlns:xlink="http://www.w3.org/1999/xlink" x="0px" y="0px"
	 viewBox="0 0 38.9 34.5" style="enable-background:new 0 0 38.9 34.5;" xml:space="preserve">
<style type="text/css">
	.st0{fill:#00A1D6;}
</style>
<g id="页面1">
	<path id="形状" class="st0" d="M9.7,32h2.5V12.4H9.7V32z M24.4,9.7h10.4c1.3,0,2.5,0.6,3.3,1.7c0.7,1,0.9,2.3,0.6,3.5l-4.5,14.7
		c-0.7,2.8-3.1,4.8-6,4.9H5c-1.8,0.1-3.5-0.8-4.3-2.4C0.3,31.3,0,30.5,0,29.6V14.7c0-1.8,0.9-3.4,2.5-4.3C3.3,10.1,4.1,9.8,5,9.7
		h6.2l6.8-8.5c1.4-1.6,3.8-1.7,5.4-0.2c0.9,0.8,1.3,2,1.2,3.2L24.4,9.7z M34.6,12.2H21.7l0.3-2.9l0.4-5.1c0.1-0.3,0-0.7-0.2-1
		c-0.2-0.3-0.5-0.5-0.8-0.6c-0.5-0.1-1,0-1.2,0.4l-6.4,8.2l-0.8,1.1H4.6c-0.3,0-0.6,0.1-0.8,0.3C3,13,2.5,13.8,2.5,14.7v14.9
		c0,0.5,0.1,0.9,0.4,1.2C3.3,31.6,4.1,32.1,5,32h23.3c0.5,0,1-0.1,1.4-0.4c1.1-0.5,1.9-1.6,2.1-2.8l4.4-14.6l2.5,0.6l-2.5-0.6
		c0.1-0.5,0-1-0.1-1.4C35.7,12.5,35.1,12.3,34.6,12.2l0.3-2.5L34.6,12.2z"/>
</g>
</svg>
